<svg width="101" height="21" viewBox="0 0 101 21" fill="none" xmlns="http://www.w3.org/2000/svg">
<path d="M3.808 2.24H0.184V20H3.544V12.872C3.544 11.848 3.488 10.8 3.376 9.728C3.28 8.656 3.192 7.64 3.112 6.68H3.232L5.032 10.496L10.168 20H13.768V2.24H10.408V9.32C10.408 10.328 10.456 11.384 10.552 12.488C10.664 13.592 10.768 14.608 10.864 15.536H10.744L8.968 11.696L3.808 2.24ZM23.4886 20.336C24.3366 20.336 25.1446 20.176 25.9126 19.856C26.6966 19.536 27.3846 19.08 27.9766 18.488C28.5686 17.88 29.0406 17.144 29.3926 16.28C29.7606 15.4 29.9446 14.408 29.9446 13.304C29.9446 12.184 29.7606 11.184 29.3926 10.304C29.0406 9.424 28.5686 8.688 27.9766 8.096C27.3846 7.488 26.6966 7.024 25.9126 6.704C25.1446 6.384 24.3366 6.224 23.4886 6.224C22.6566 6.224 21.8486 6.384 21.0646 6.704C20.2806 7.024 19.5926 7.488 19.0006 8.096C18.4086 8.688 17.9286 9.424 17.5606 10.304C17.2086 11.184 17.0326 12.184 17.0326 13.304C17.0326 14.408 17.2086 15.4 17.5606 16.28C17.9286 17.144 18.4086 17.88 19.0006 18.488C19.5926 19.08 20.2806 19.536 21.0646 19.856C21.8486 20.176 22.6566 20.336 23.4886 20.336ZM23.4886 17.456C22.5766 17.456 21.8726 17.08 21.3766 16.328C20.8806 15.576 20.6326 14.568 20.6326 13.304C20.6326 12.008 20.8806 10.984 21.3766 10.232C21.8726 9.48 22.5766 9.104 23.4886 9.104C24.4006 9.104 25.1046 9.48 25.6006 10.232C26.0966 10.984 26.3446 12.008 26.3446 13.304C26.3446 14.568 26.0966 15.576 25.6006 16.328C25.1046 17.08 24.4006 17.456 23.4886 17.456ZM35.776 6.56H32.896V20H36.4V10.76C37.36 9.752 38.224 9.248 38.992 9.248C39.632 9.248 40.104 9.456 40.408 9.872C40.712 10.272 40.864 11 40.864 12.056V20H44.392V10.76C45.352 9.752 46.216 9.248 46.984 9.248C47.624 9.248 48.096 9.456 48.4 9.872C48.704 10.272 48.856 11 48.856 12.056V20H52.384V11.624C52.384 9.928 52.048 8.608 51.376 7.664C50.704 6.704 49.648 6.224 48.208 6.224C47.328 6.224 46.544 6.448 45.856 6.896C45.184 7.344 44.544 7.904 43.936 8.576C43.616 7.808 43.16 7.224 42.568 6.824C41.976 6.424 41.2 6.224 40.24 6.224C39.36 6.224 38.592 6.432 37.936 6.848C37.28 7.264 36.672 7.768 36.112 8.36H36.016L35.776 6.56ZM59.3408 20.24C60.1088 20.24 60.8288 20.096 61.5008 19.808C62.1888 19.52 62.8208 19.128 63.3968 18.632H63.4688L63.7328 20H66.6128V12.152C66.6128 8.2 64.8928 6.224 61.4528 6.224C60.3968 6.224 59.3808 6.376 58.4048 6.68C57.4448 6.984 56.5968 7.36 55.8608 7.808L56.9168 10.328C57.5248 9.928 58.1648 9.616 58.8368 9.392C59.5248 9.168 60.1808 9.056 60.8048 9.056C61.8288 9.056 62.4848 9.264 62.7728 9.68C63.0448 10.256 63.1488 10.824 63.0848 11.384C60.3008 11.464 58.2928 11.904 57.0608 12.704C55.8448 13.488 55.2768 14.704 55.3568 16.352C55.3568 16.928 55.4528 17.456 55.6448 17.936C55.8368 18.416 56.1008 18.832 56.4368 19.184C56.7888 19.52 57.2128 19.784 57.7088 19.976C58.2048 20.152 58.7488 20.24 59.3408 20.24ZM60.4208 17.552C59.9088 17.552 59.4768 17.392 59.1248 17.072C58.7888 16.752 58.6128 16.312 58.5968 15.752C58.5808 15.272 58.7248 14.856 59.0288 14.504C59.3488 14.152 59.8928 13.92 60.6608 13.808C61.0448 13.744 61.4368 13.696 61.8368 13.664C62.2528 13.616 62.6688 13.576 63.0848 13.544V16.256C62.6688 16.672 62.2448 16.992 61.8128 17.216C61.3968 17.424 60.9328 17.536 60.4208 17.552ZM74.9365 20.336C75.6565 20.336 76.3285 20.168 76.9525 19.832C77.5925 19.496 78.1605 19.088 78.6565 18.608H78.7285L79.0165 20H81.8725V0.847999H78.3445V5.576L78.4885 7.688C78.0085 7.24 77.5125 6.888 77.0005 6.632C76.4885 6.36 75.8485 6.224 75.0805 6.224C74.3605 6.224 73.6565 6.392 72.9685 6.728C72.2965 7.048 71.6965 7.512 71.1685 8.12C70.6405 8.728 70.2165 9.472 69.8965 10.352C69.5925 11.216 69.4405 12.2 69.4405 13.304C69.4405 14.408 69.5685 15.392 69.8245 16.256C70.0805 17.12 70.4485 17.856 70.9285 18.464C71.4085 19.072 71.9845 19.536 72.6565 19.856C73.3445 20.176 74.1045 20.336 74.9365 20.336ZM75.8485 17.432C73.9925 17.432 73.0645 16.04 73.0645 13.256C73.0645 12.584 73.1365 11.992 73.2805 11.48C73.4405 10.968 73.6405 10.536 73.8805 10.184C74.1365 9.832 74.4325 9.568 74.7685 9.392C75.1045 9.216 75.4645 9.128 75.8485 9.128C76.2645 9.128 76.6805 9.208 77.0965 9.368C77.5125 9.512 77.9285 9.768 78.3445 10.136V16.04C77.9605 16.552 77.5605 16.912 77.1445 17.12C76.7445 17.328 76.3125 17.432 75.8485 17.432ZM85.3418 4.4H88.8458V0.991999H85.3418V4.4ZM85.3178 6.56V20H88.8218V6.56H85.3178ZM97.2066 20.336C97.7986 20.336 98.3266 20.28 98.7906 20.168C99.2546 20.072 99.6706 19.96 100.039 19.832L99.4626 17.264C99.2866 17.344 99.0786 17.416 98.8386 17.48C98.5986 17.528 98.3666 17.552 98.1426 17.552C96.9266 17.552 96.3186 16.8 96.3186 15.296V9.344H99.6306V6.56H96.3186V2.96H93.3666L92.9586 6.56L90.8946 6.728V9.344H92.7906V15.296C92.7906 16.048 92.8706 16.736 93.0306 17.36C93.1906 17.984 93.4466 18.52 93.7986 18.968C94.1506 19.4 94.6066 19.736 95.1666 19.976C95.7266 20.216 96.4066 20.336 97.2066 20.336Z" fill="black"/>
</svg>
