<svg width="103" height="30" viewBox="0 0 103 30" fill="none" xmlns="http://www.w3.org/2000/svg">
<g clip-path="url(#clip0_203_309)">
<path d="M5.808 5.24H2.184V23H5.544V15.872C5.544 14.848 5.488 13.8 5.376 12.728C5.28 11.656 5.192 10.64 5.112 9.68H5.232L7.032 13.496L12.168 23H15.768V5.24H12.408V12.32C12.408 13.328 12.456 14.384 12.552 15.488C12.664 16.592 12.768 17.608 12.864 18.536H12.744L10.968 14.696L5.808 5.24ZM25.4886 23.336C26.3366 23.336 27.1446 23.176 27.9126 22.856C28.6966 22.536 29.3846 22.08 29.9766 21.488C30.5686 20.88 31.0406 20.144 31.3926 19.28C31.7606 18.4 31.9446 17.408 31.9446 16.304C31.9446 15.184 31.7606 14.184 31.3926 13.304C31.0406 12.424 30.5686 11.688 29.9766 11.096C29.3846 10.488 28.6966 10.024 27.9126 9.704C27.1446 9.384 26.3366 9.224 25.4886 9.224C24.6566 9.224 23.8486 9.384 23.0646 9.704C22.2806 10.024 21.5926 10.488 21.0006 11.096C20.4086 11.688 19.9286 12.424 19.5606 13.304C19.2086 14.184 19.0326 15.184 19.0326 16.304C19.0326 17.408 19.2086 18.4 19.5606 19.28C19.9286 20.144 20.4086 20.88 21.0006 21.488C21.5926 22.08 22.2806 22.536 23.0646 22.856C23.8486 23.176 24.6566 23.336 25.4886 23.336ZM25.4886 20.456C24.5766 20.456 23.8726 20.08 23.3766 19.328C22.8806 18.576 22.6326 17.568 22.6326 16.304C22.6326 15.008 22.8806 13.984 23.3766 13.232C23.8726 12.48 24.5766 12.104 25.4886 12.104C26.4006 12.104 27.1046 12.48 27.6006 13.232C28.0966 13.984 28.3446 15.008 28.3446 16.304C28.3446 17.568 28.0966 18.576 27.6006 19.328C27.1046 20.08 26.4006 20.456 25.4886 20.456ZM37.776 9.56H34.896V23H38.4V13.76C39.36 12.752 40.224 12.248 40.992 12.248C41.632 12.248 42.104 12.456 42.408 12.872C42.712 13.272 42.864 14 42.864 15.056V23H46.392V13.76C47.352 12.752 48.216 12.248 48.984 12.248C49.624 12.248 50.096 12.456 50.4 12.872C50.704 13.272 50.856 14 50.856 15.056V23H54.384V14.624C54.384 12.928 54.048 11.608 53.376 10.664C52.704 9.704 51.648 9.224 50.208 9.224C49.328 9.224 48.544 9.448 47.856 9.896C47.184 10.344 46.544 10.904 45.936 11.576C45.616 10.808 45.16 10.224 44.568 9.824C43.976 9.424 43.2 9.224 42.24 9.224C41.36 9.224 40.592 9.432 39.936 9.848C39.28 10.264 38.672 10.768 38.112 11.36H38.016L37.776 9.56ZM61.3408 23.24C62.1088 23.24 62.8288 23.096 63.5008 22.808C64.1888 22.52 64.8208 22.128 65.3968 21.632H65.4688L65.7328 23H68.6128V15.152C68.6128 11.2 66.8928 9.224 63.4528 9.224C62.3968 9.224 61.3808 9.376 60.4048 9.68C59.4448 9.984 58.5968 10.36 57.8608 10.808L58.9168 13.328C59.5248 12.928 60.1648 12.616 60.8368 12.392C61.5248 12.168 62.1808 12.056 62.8048 12.056C63.8288 12.056 64.4848 12.264 64.7728 12.68C65.0448 13.256 65.1488 13.824 65.0848 14.384C62.3008 14.464 60.2928 14.904 59.0608 15.704C57.8448 16.488 57.2768 17.704 57.3568 19.352C57.3568 19.928 57.4528 20.456 57.6448 20.936C57.8368 21.416 58.1008 21.832 58.4368 22.184C58.7888 22.52 59.2128 22.784 59.7088 22.976C60.2048 23.152 60.7488 23.24 61.3408 23.24ZM62.4208 20.552C61.9088 20.552 61.4768 20.392 61.1248 20.072C60.7888 19.752 60.6128 19.312 60.5968 18.752C60.5808 18.272 60.7248 17.856 61.0288 17.504C61.3488 17.152 61.8928 16.92 62.6608 16.808C63.0448 16.744 63.4368 16.696 63.8368 16.664C64.2528 16.616 64.6688 16.576 65.0848 16.544V19.256C64.6688 19.672 64.2448 19.992 63.8128 20.216C63.3968 20.424 62.9328 20.536 62.4208 20.552ZM76.9365 23.336C77.6565 23.336 78.3285 23.168 78.9525 22.832C79.5925 22.496 80.1605 22.088 80.6565 21.608H80.7285L81.0165 23H83.8725V3.848H80.3445V8.576L80.4885 10.688C80.0085 10.24 79.5125 9.888 79.0005 9.632C78.4885 9.36 77.8485 9.224 77.0805 9.224C76.3605 9.224 75.6565 9.392 74.9685 9.728C74.2965 10.048 73.6965 10.512 73.1685 11.12C72.6405 11.728 72.2165 12.472 71.8965 13.352C71.5925 14.216 71.4405 15.2 71.4405 16.304C71.4405 17.408 71.5685 18.392 71.8245 19.256C72.0805 20.12 72.4485 20.856 72.9285 21.464C73.4085 22.072 73.9845 22.536 74.6565 22.856C75.3445 23.176 76.1045 23.336 76.9365 23.336ZM77.8485 20.432C75.9925 20.432 75.0645 19.04 75.0645 16.256C75.0645 15.584 75.1365 14.992 75.2805 14.48C75.4405 13.968 75.6405 13.536 75.8805 13.184C76.1365 12.832 76.4325 12.568 76.7685 12.392C77.1045 12.216 77.4645 12.128 77.8485 12.128C78.2645 12.128 78.6805 12.208 79.0965 12.368C79.5125 12.512 79.9285 12.768 80.3445 13.136V19.04C79.9605 19.552 79.5605 19.912 79.1445 20.12C78.7445 20.328 78.3125 20.432 77.8485 20.432ZM87.3418 7.4H90.8458V3.992H87.3418V7.4ZM87.3178 9.56V23H90.8218V9.56H87.3178ZM99.2066 23.336C99.7986 23.336 100.327 23.28 100.791 23.168C101.255 23.072 101.671 22.96 102.039 22.832L101.463 20.264C101.287 20.344 101.079 20.416 100.839 20.48C100.599 20.528 100.367 20.552 100.143 20.552C98.9266 20.552 98.3186 19.8 98.3186 18.296V12.344H101.631V9.56H98.3186V5.96H95.3666L94.9586 9.56L92.8946 9.728V12.344H94.7906V18.296C94.7906 19.048 94.8706 19.736 95.0306 20.36C95.1906 20.984 95.4466 21.52 95.7986 21.968C96.1506 22.4 96.6066 22.736 97.1666 22.976C97.7266 23.216 98.4066 23.336 99.2066 23.336Z" fill="black"/>
</g>
<defs>
<clipPath id="clip0_203_309">
<rect width="103" height="30" fill="white"/>
</clipPath>
</defs>
</svg>
