<svg width="99" height="21" viewBox="0 0 99 21" fill="none" xmlns="http://www.w3.org/2000/svg">
<path d="M1.808 2.24H-1.816V20H1.544V12.872C1.544 11.848 1.488 10.8 1.376 9.728C1.28 8.656 1.192 7.64 1.112 6.68H1.232L3.032 10.496L8.168 20H11.768V2.24H8.408V9.32C8.408 10.328 8.456 11.384 8.552 12.488C8.664 13.592 8.768 14.608 8.864 15.536H8.744L6.968 11.696L1.808 2.24ZM21.4886 20.336C22.3366 20.336 23.1446 20.176 23.9126 19.856C24.6966 19.536 25.3846 19.08 25.9766 18.488C26.5686 17.88 27.0406 17.144 27.3926 16.28C27.7606 15.4 27.9446 14.408 27.9446 13.304C27.9446 12.184 27.7606 11.184 27.3926 10.304C27.0406 9.424 26.5686 8.688 25.9766 8.096C25.3846 7.488 24.6966 7.024 23.9126 6.704C23.1446 6.384 22.3366 6.224 21.4886 6.224C20.6566 6.224 19.8486 6.384 19.0646 6.704C18.2806 7.024 17.5926 7.488 17.0006 8.096C16.4086 8.688 15.9286 9.424 15.5606 10.304C15.2086 11.184 15.0326 12.184 15.0326 13.304C15.0326 14.408 15.2086 15.4 15.5606 16.28C15.9286 17.144 16.4086 17.88 17.0006 18.488C17.5926 19.08 18.2806 19.536 19.0646 19.856C19.8486 20.176 20.6566 20.336 21.4886 20.336ZM21.4886 17.456C20.5766 17.456 19.8726 17.08 19.3766 16.328C18.8806 15.576 18.6326 14.568 18.6326 13.304C18.6326 12.008 18.8806 10.984 19.3766 10.232C19.8726 9.48 20.5766 9.104 21.4886 9.104C22.4006 9.104 23.1046 9.48 23.6006 10.232C24.0966 10.984 24.3446 12.008 24.3446 13.304C24.3446 14.568 24.0966 15.576 23.6006 16.328C23.1046 17.08 22.4006 17.456 21.4886 17.456ZM33.776 6.56H30.896V20H34.4V10.76C35.36 9.752 36.224 9.248 36.992 9.248C37.632 9.248 38.104 9.456 38.408 9.872C38.712 10.272 38.864 11 38.864 12.056V20H42.392V10.76C43.352 9.752 44.216 9.248 44.984 9.248C45.624 9.248 46.096 9.456 46.4 9.872C46.704 10.272 46.856 11 46.856 12.056V20H50.384V11.624C50.384 9.928 50.048 8.608 49.376 7.664C48.704 6.704 47.648 6.224 46.208 6.224C45.328 6.224 44.544 6.448 43.856 6.896C43.184 7.344 42.544 7.904 41.936 8.576C41.616 7.808 41.16 7.224 40.568 6.824C39.976 6.424 39.2 6.224 38.24 6.224C37.36 6.224 36.592 6.432 35.936 6.848C35.28 7.264 34.672 7.768 34.112 8.36H34.016L33.776 6.56ZM57.3408 20.24C58.1088 20.24 58.8288 20.096 59.5008 19.808C60.1888 19.52 60.8208 19.128 61.3968 18.632H61.4688L61.7328 20H64.6128V12.152C64.6128 8.2 62.8928 6.224 59.4528 6.224C58.3968 6.224 57.3808 6.376 56.4048 6.68C55.4448 6.984 54.5968 7.36 53.8608 7.808L54.9168 10.328C55.5248 9.928 56.1648 9.616 56.8368 9.392C57.5248 9.168 58.1808 9.056 58.8048 9.056C59.8288 9.056 60.4848 9.264 60.7728 9.68C61.0448 10.256 61.1488 10.824 61.0848 11.384C58.3008 11.464 56.2928 11.904 55.0608 12.704C53.8448 13.488 53.2768 14.704 53.3568 16.352C53.3568 16.928 53.4528 17.456 53.6448 17.936C53.8368 18.416 54.1008 18.832 54.4368 19.184C54.7888 19.52 55.2128 19.784 55.7088 19.976C56.2048 20.152 56.7488 20.24 57.3408 20.24ZM58.4208 17.552C57.9088 17.552 57.4768 17.392 57.1248 17.072C56.7888 16.752 56.6128 16.312 56.5968 15.752C56.5808 15.272 56.7248 14.856 57.0288 14.504C57.3488 14.152 57.8928 13.92 58.6608 13.808C59.0448 13.744 59.4368 13.696 59.8368 13.664C60.2528 13.616 60.6688 13.576 61.0848 13.544V16.256C60.6688 16.672 60.2448 16.992 59.8128 17.216C59.3968 17.424 58.9328 17.536 58.4208 17.552ZM72.9365 20.336C73.6565 20.336 74.3285 20.168 74.9525 19.832C75.5925 19.496 76.1605 19.088 76.6565 18.608H76.7285L77.0165 20H79.8725V0.847999H76.3445V5.576L76.4885 7.688C76.0085 7.24 75.5125 6.888 75.0005 6.632C74.4885 6.36 73.8485 6.224 73.0805 6.224C72.3605 6.224 71.6565 6.392 70.9685 6.728C70.2965 7.048 69.6965 7.512 69.1685 8.12C68.6405 8.728 68.2165 9.472 67.8965 10.352C67.5925 11.216 67.4405 12.2 67.4405 13.304C67.4405 14.408 67.5685 15.392 67.8245 16.256C68.0805 17.12 68.4485 17.856 68.9285 18.464C69.4085 19.072 69.9845 19.536 70.6565 19.856C71.3445 20.176 72.1045 20.336 72.9365 20.336ZM73.8485 17.432C71.9925 17.432 71.0645 16.04 71.0645 13.256C71.0645 12.584 71.1365 11.992 71.2805 11.48C71.4405 10.968 71.6405 10.536 71.8805 10.184C72.1365 9.832 72.4325 9.568 72.7685 9.392C73.1045 9.216 73.4645 9.128 73.8485 9.128C74.2645 9.128 74.6805 9.208 75.0965 9.368C75.5125 9.512 75.9285 9.768 76.3445 10.136V16.04C75.9605 16.552 75.5605 16.912 75.1445 17.12C74.7445 17.328 74.3125 17.432 73.8485 17.432ZM83.3418 4.4H86.8458V0.991999H83.3418V4.4ZM83.3178 6.56V20H86.8218V6.56H83.3178ZM95.2066 20.336C95.7986 20.336 96.3266 20.28 96.7906 20.168C97.2546 20.072 97.6706 19.96 98.0386 19.832L97.4626 17.264C97.2866 17.344 97.0786 17.416 96.8386 17.48C96.5986 17.528 96.3666 17.552 96.1426 17.552C94.9266 17.552 94.3186 16.8 94.3186 15.296V9.344H97.6306V6.56H94.3186V2.96H91.3666L90.9586 6.56L88.8946 6.728V9.344H90.7906V15.296C90.7906 16.048 90.8706 16.736 91.0306 17.36C91.1906 17.984 91.4466 18.52 91.7986 18.968C92.1506 19.4 92.6066 19.736 93.1666 19.976C93.7266 20.216 94.4066 20.336 95.2066 20.336Z" fill="black"/>
</svg>
