<svg width="485" height="74" viewBox="0 0 485 74" fill="none" xmlns="http://www.w3.org/2000/svg">
<path d="M5 32C2.23858 32 0 34.2386 0 37C0 39.7614 2.23858 42 5 42V32ZM483.536 40.5355C485.488 38.5829 485.488 35.4171 483.536 33.4645L451.716 1.64466C449.763 -0.307961 446.597 -0.307961 444.645 1.64466C442.692 3.59728 442.692 6.76311 444.645 8.71573L472.929 37L444.645 65.2843C442.692 67.2369 442.692 70.4027 444.645 72.3553C446.597 74.308 449.763 74.308 451.716 72.3553L483.536 40.5355ZM5 42H480V32H5V42Z" fill="url(#paint0_linear_210_455)"/>
<defs>
<linearGradient id="paint0_linear_210_455" x1="26.4998" y1="14.0021" x2="521" y2="62.0013" gradientUnits="userSpaceOnUse">
<stop stop-color="#37C3FF"/>
<stop offset="1" stop-color="#BF39FF"/>
</linearGradient>
</defs>
</svg>
